<?xml version="1.0" encoding="utf-8"?>
<!-- Generator: Adobe Illustrator 14.0.0, SVG Export Plug-In . SVG Version: 6.00 Build 43363)  -->
<!DOCTYPE svg PUBLIC "-//W3C//DTD SVG 1.1//EN" "http://www.w3.org/Graphics/SVG/1.1/DTD/svg11.dtd">
<svg version="1.1" id="Layer_1" xmlns="http://www.w3.org/2000/svg" xmlns:xlink="http://www.w3.org/1999/xlink" x="0px" y="0px"
	 width="800px" height="223px" viewBox="0 0 800 223" enable-background="new 0 0 800 223" xml:space="preserve">
<g>
	<path fill-rule="evenodd" clip-rule="evenodd" d="M40.578,110.139c0.178,1.279-0.242,1.949-1.091,2.19
		c0.706,1.118,2.522,1.144,2.191,3.3c-1.833,0-3.657,0-5.491,0C37.842,113.992,36.519,109.369,40.578,110.139z"/>
	<path fill-rule="evenodd" clip-rule="evenodd" d="M32.888,117.828c3.344,1.636,4.274-0.358,6.599,1.1
		c-0.447,5.973-11.365,1.565-7.699,8.781C25.413,125.249,31.664,121.485,32.888,117.828z"/>
	<path fill-rule="evenodd" clip-rule="evenodd" d="M363.619,171.667c2.807,1.216,7.636,0.428,8.79,3.29
		c-1.53,2.861-5.687-0.787-7.69-1.091c-2.726,2.092-0.464,8.459,4.4,6.6c-5.25,1.716-3.811,10.103-5.5,15.38
		c-7.477-1.949,2.155-14.449-7.69-14.288C359.631,179.393,360.694,174.6,363.619,171.667z"/>
	<path fill-rule="evenodd" clip-rule="evenodd" d="M410.876,172.759c0.126-2.416,4.65-0.466,6.581-1.092
		c1.27,12.464-0.25,13.412-1.09,25.269C407.736,193.431,416.383,179.393,410.876,172.759z"/>
	<path fill-rule="evenodd" clip-rule="evenodd" d="M446.034,195.846c-8.458-12.894,5.187-32.585,14.271-19.779
		C465.259,183.04,461.486,198.51,446.034,195.846z M448.235,192.537c3.092-0.895,2.844,1.556,5.489,1.108
		c5.49-2.665,4.828-11.07,2.2-16.488C447.037,172.364,445.373,185.938,448.235,192.537z"/>
	<path fill-rule="evenodd" clip-rule="evenodd" d="M486.685,181.558c-3.758,1.733-5.99,5.006-12.09,4.398
		c7.117-1.896,11.805-12.895-2.199-10.999C475.759,168.842,487.185,173.938,486.685,181.558z"/>
	<path fill-rule="evenodd" clip-rule="evenodd" d="M435.037,172.759c-3.344,3.844-10.051,7.368-8.781,18.687
		c3.075,5.348,9.514,2.486,10.979-2.199c-0.161-3.147-4.576-2.002-7.688-2.199c2.557-4.508,6.49-2.146,12.089-2.2
		c-3.131,5.67-4.578,13.019-15.38,10.999C417.763,189.461,421.893,172.578,435.037,172.759z"/>
	<path fill-rule="evenodd" clip-rule="evenodd" d="M466.904,173.866c7.564,4.579,1.611,15.076,4.398,21.979c-1.84,0-3.663,0-5.49,0
		C465.171,190.553,468.299,181.646,466.904,173.866z"/>
	<path fill-rule="evenodd" clip-rule="evenodd" d="M273.521,174.957c3.103,3.54-0.241,9.979,0,14.289
		c0.832,1.825,9.059,1.825,9.891,0c2.108,3.63-12.207,3.54-13.19,4.399C267.476,189.371,270.025,178.677,273.521,174.957z"/>
	<path fill-rule="evenodd" clip-rule="evenodd" d="M347.139,180.466c17.23,0.231-7.957,29.489-9.89,8.78
		C336.74,183.81,341.228,180.375,347.139,180.466z M342.739,193.646c7.056,1.198,6.752-4.972,6.599-10.999
		C342.087,181.967,339.278,189.873,342.739,193.646z"/>
	<path fill-rule="evenodd" clip-rule="evenodd" d="M287.8,180.466c4.883,0.644,3.541,13.27,3.299,15.38
		C284.833,195.201,287.023,185.133,287.8,180.466z"/>
	<path fill-rule="evenodd" clip-rule="evenodd" d="M324.068,183.756c-1.717,3.417-4.962,5.293-9.889,5.49
		c0.384,1.449,1.931,1.734,2.191,3.291c3.889,0.606,2.708-3.882,6.599-3.291c1.814,3.487-4.176,7.135-9.89,6.6
		c-1.931-4.614-2.308-5.527-2.199-13.199C315.038,180.484,321.368,179.374,324.068,183.756z M314.18,187.047
		c3.103,0.912,2.842-1.538,5.49-1.091c0-0.734,0-1.468,0-2.2C318.453,182.522,313.116,182.772,314.18,187.047z"/>
	<path fill-rule="evenodd" clip-rule="evenodd" d="M294.399,182.646c2.728-2.271,4.471,2.397,8.791,0
		c1.949,3.541,4.453,6.546,4.391,12.09c-5.141,0.019-2.969-7.279-6.59-8.78c-4.23,2.844,1.028,7.046-1.102,9.89
		C292.755,196.758,297.421,185.865,294.399,182.646z"/>
	<path fill-rule="evenodd" clip-rule="evenodd" d="M474.595,189.246c4.364-2.844,8.084,4.328,12.09,5.49
		C482.25,197.65,478.153,190.838,474.595,189.246z"/>
	<path fill-rule="evenodd" clip-rule="evenodd" d="M183.423,79.37c1.555,0.097,3.111,0.178,3.301-1.101
		c2.03,1.539-1.61,5.222,3.29,5.499c-0.18,1.289-2.003,0.921-3.29,1.092c0.625,3.63,4.147,1.582,6.589,1.099
		c1.53,6.528,5.213,10.909,9.889,14.289c-1.966,2.79,1.217,5.357-2.199,7.69c2.046-0.152,3.674-0.725,4.39-2.2
		c0.662,1.182,0.715,8.441,5.499,5.5c-1.447,3.934,0.073,4.023-1.099,7.69c3.515-5.384,8.183,2.262,9.89,5.49
		c4.247-2.584,9.083,2.236,9.888,6.599c5.375,1.021,8.96,2.504,12.089,6.581c2.11-0.446,0.867-4.256,4.391-3.291
		c0,1.091,0,2.2,0,3.291c4.426-3.611,12.242-6.813,15.381-4.381c2.52-4.435,7.555-6.366,8.789-12.089
		c1.074,0.026,0.858,1.341,1.1,2.191c11.393-16.686,23.831-25.69,32.969-43.949c2.745,1.403,3.435-0.555,4.391,1.1
		c1.753-2.996,2.897-14.164,9.889-15.38c-0.581-0.884-1.144-1.789-1.099-3.3c9.585-0.67,6.16-14.351,16.479-14.279
		c-2.388-8.102,9.936-10.427,13.189-16.489c3.639,0.823,4.766,3.372,6.59,3.299c-8.379,6.278-19.1,10.194-21.97,21.979
		c-3.39,0.77-2.11,0.77-5.5,0c5.687,5.616-2.745,7.467-6.589,9.891c1.244,4.185-4.606,9.764-8.79,12.08
		c2.262,5.267-6.511,5.116-2.2,8.79c-5.615-0.885-9.971,12.322-15.381,18.679c-3.55,4.167-11.115,5.169-7.69,8.791
		c-0.634,2.664-7.108-0.511-6.599,3.299c-0.33,3.433,3.174-2.79,3.3,1.1c-1.27,4.587-7.977,3.737-7.689,9.889
		c-2.595-1.609-2.048-2.324-5.492-1.108c-2.118,1.413,2.593,2.27,0,5.508c-4.774-1.108-4.9,2.413-6.599,4.381
		c-3.854-0.966-3.612,0.216-6.589-2.2c2.477,4.597-5.482,3.576-7.69,6.599c-0.312-1.771,1.038-1.896,1.1-3.29
		c-6.044,1.27-0.581,3.094-7.69,3.29c3.479-4.345-4.247,1.699-3.3-4.399c-3.737,1.449-7.671-2.449-8.79,0
		c-1.286-3.862-5.856-10.211-9.888-7.689c-4.059-5.15-4.928-8.253-12.09-8.78c-0.519-5.706-2.156-10.301-7.69-10.989
		c0.563-6.063-2.521-8.469-6.589-9.891c-0.519-3.451,2.96-2.906,3.29-5.5c0.474-1.814-4.095,0.099-4.389,1.101
		c-2.701-3.89-5.554-7.637-9.89-9.89c-0.805-2.995,2.182-2.208,2.2-4.39c-4.211,3.352-11.338-9.711-9.89-15.38
		c-1.1,3.836-5.668,0.134-3.299-2.2c-7.404-4.193-15.639-19.109-24.17-28.568c-2.252,4.559-3.612-1.289-5.499-3.301
		c-5.088,0.698-7.932-0.858-9.879-3.291c-7.906,0.912-16.482,1.628-23.081,3.291c-0.044,1.878,0.814,2.843,2.2,3.301
		c-7.68,2.753-19.45,9.459-21.979,20.877c-3.38,0.77-2.11,0.77-5.49,0c6.099,6.134-3.728,7.387-7.69,9.891
		c3.881,7.314-11.999,11.544-10.99,23.069c-11.686,0.483-10.362,17.91-23.078,21.979c-1.592-4.874-0.457-7.852,4.399-8.79
		c0.304,1.771-1.038,1.887-1.101,3.291c5.366-9.953,10.918-15.299,16.48-26.369c1.744,0.089,4.194-0.528,4.4,1.1
		c-0.045-12.116,15.468-18.984,19.77-32.959c2.29,3.684,3.747-2.655,4.398,0c-0.599-6.984,9.82-11.062,14.282-16.489
		c1.868-0.402,2.075,0.859,2.2,2.2c2.663-0.635,2.44-4.149,3.3-6.59c2.718,1.645,7.494-2.253,9.888-4.399
		c1.826,2.987,8.834,2.289,9.891,0c2.021,2.969,0.76,3.157,5.49,2.2c-0.144,1.966,1.35,2.315,1.099,4.398
		c2.101-2.521,9.095-2.074,8.789,3.291c3.105,0.913,2.845-1.546,5.49-1.1C161.498,47.813,177.316,61.101,183.423,79.37z"/>
	<path fill-rule="evenodd" clip-rule="evenodd" d="M670.17,79.37c1.574,0.097,3.112,0.178,3.309-1.101
		c10.285,15.729,21.156,30.841,32.96,45.05c7.833,0.589,11.695,5.141,15.38,9.898c12.608,2.825,28.988,0.822,35.158-12.089
		c4.311,0.697,2.594-1.548,5.49-5.499c6.205-8.432,13.557-13.226,18.689-20.88c9.425,7.146-9.837,14.325-8.799,19.78
		c-0.947,3.201-1.646,1.233-4.383,1.1c-0.463,2.646,2.005,2.387,1.09,5.499c-3.485,1.635-6.775,3.477-7.688,7.689
		c-0.895-0.214-1.092-1.108-2.201-1.108c-4.684,9.765-14.662,8.369-20.869,14.288c-9.889,3.308-14.093-6.045-24.178-4.399
		c0.393-5.883-2.736-8.244-8.799-7.689c-7.762-7.61-13.164-14.235-19.763-20.87c0-1.833,0-3.667,0-5.5
		c-2.109-1.574-7.707-2.95-4.398-6.59c-16.811-12.868-23.106-36.241-39.56-49.439c0-1.467,0-2.933,0-4.399
		C628,32.085,614.392,26.729,597.652,31.021c-2.039,1.959,0.893,2.799,0,6.6C583.506,35,579.34,55.96,569.092,57.391
		c0.967,0.993,3.344,0.089,3.292,4.398c-3.56,1.208-6.333,3.193-9.89,4.4c0.856,0.974,1.179,2.477,1.108,4.39
		c-4.382-0.948-2.987,6.787-6.599,3.3c0.856,0.975,1.179,2.477,1.107,4.39c-4.239,1.636-7.029,4.704-6.6,10.989
		c-5.721-4.05-4.363,6.939-10.998,5.49c3.47,9.783-13.52,13.064-12.071,20.88c-3.362-0.796-4.005,1.125-6.599,1.099
		c0.252,1.583,3.273,0.385,3.29,2.201c-1.18,4.676-7.118,4.595-7.688,9.889c-4.633-1.699-8.299,6.062-12.09,8.78
		c-3.846-0.966-3.613,0.216-6.583-2.2c2.542,4.507-4.649,3.542-6.598,6.599c-1.323-1.448-0.431-1.735,0-3.29
		c-6.474,8.709-13.395-4.524-20.872-1.109c0.771-5.561-5.812-9.514-8.797-7.689c-2.718-4.239-5.366-8.539-12.09-8.78
		c-0.842-5.374-1.627-10.82-7.69-10.989c1.503-6.993-3.558-7.431-5.49-10.99c0.145-2.799,1.592-4.266,4.4-4.4
		c2.021,1.279-0.572,7.171,4.398,5.5c-1.163,3.604,0.699,4.847-2.199,7.69c2.647,0.447,2.379-2.003,5.491-1.1
		c0.197,4.149,0.77,6.206,4.398,4.399c-0.857,8.182,8.942,5.696,8.781,13.18c10.157,0.564,14.558,8.728,21.98,12.089
		c8.296-3.916,24.428-0.983,28.559-15.379c1.449,1.314,1.733,0.42,3.309,0c18.475-21.344,34.729-47.902,52.738-63.737
		c-0.928-4.587,2.129-5.187,2.201-8.79c2.592-1.414,2.038,0.152,5.489-1.091c-1.145-6.421,12.642-17.688,17.578-14.289
		c2.381,0.188,0.502-3.899,1.093-5.491c4.971-1.69,6.562-2.888,12.088-5.499c-0.715,3.998,7.153,0.653,8.799,0
		c0.983,1.94,3.041,5.437,4.4,1.1c1.073,5.875,12.25,1.664,12.073,8.79c1.984,0.144,2.323-1.341,4.397-1.1
		C648.03,48.171,664.877,60.028,670.17,79.37z"/>
	<path fill-rule="evenodd" clip-rule="evenodd" d="M418.567,61.789c-0.557,5.043,7.275,11.544,8.779,17.581
		c1.968,0.143,2.323-1.341,4.398-1.101c-5.345,3.292,3.953,5.231-1.107,7.69c0.93,3.229,3.54-0.652,5.508,0
		c-0.68,4.713,3.576,4.48,3.291,8.79c-3.112-0.903-2.846,1.556-5.491,1.101c1.198-7.216-12.661-8.057-6.599-13.18
		c-2.789,0.938-10.713-8.173-8.779-16.48c-1.88-0.412-2.075,0.849-2.2,2.19c-10.033-11.383-15.703-20.334-25.279-31.86
		c-0.859-0.671-2.478,0.859-2.2,1.101c-12.948-11.062-21.21-8.45-38.45-5.5c0.465-2.092,2.359-2.753,2.191-5.49
		c2.735,0.697,6.544-0.93,9.888-4.399c1.826,2.987,8.837,2.289,9.891,0c0.966,5.329,5.75,0.045,6.599,5.499
		c3.899-3.363,5.08,2.656,8.789,0c-2.851,5.034,2.236,2.182,4.392,3.291C402.274,36.217,407.059,55.361,418.567,61.789z"/>
	<path fill-rule="evenodd" clip-rule="evenodd" d="M16.408,133.217c-2.092-0.77,1.189-1.717,1.1,0
		c3.469-0.572,4.819-3.238,8.79-3.309c-0.581,0.895-1.145,1.788-1.1,3.309c-6.241-2.217-2.808,5.24-7.69,4.381
		C17.418,135.863,18.036,133.414,16.408,133.217z"/>
	<path fill-rule="evenodd" clip-rule="evenodd" d="M402.077,177.157c2.951,1.198,2.495-3.881,6.59-4.398
		c-4.568,7.886-3.398,21.513-15.378,21.978c-1.315-7.136-10.615-16.685-6.591-21.978c4.417,2.771,5.606,11.141,9.891,18.687
		C400.164,189.139,402.417,179.731,402.077,177.157z"/>
</g>
</svg>
