<?xml version="1.0" encoding="utf-8"?>
<!-- Generator: Adobe Illustrator 14.0.0, SVG Export Plug-In . SVG Version: 6.00 Build 43363)  -->
<!DOCTYPE svg PUBLIC "-//W3C//DTD SVG 1.1//EN" "http://www.w3.org/Graphics/SVG/1.1/DTD/svg11.dtd">
<svg version="1.1" id="Layer_1" xmlns="http://www.w3.org/2000/svg" xmlns:xlink="http://www.w3.org/1999/xlink" x="0px" y="0px"
	 width="800px" height="800px" viewBox="0 0 800 800" enable-background="new 0 0 800 800" xml:space="preserve">
<g>
	<path fill-rule="evenodd" clip-rule="evenodd" d="M567.504,355.347c3.194,0,6.351,0,9.544,0c7.365,25.422,1.248,30.975,0,57.449
		C560.802,399.238,572.646,372.822,567.504,355.347z"/>
	<path fill-rule="evenodd" clip-rule="evenodd" d="M340.082,367.309c-7.85-0.137-9.157-6.798-19.148-4.772
		c-4.363,14.728,11.396,9.331,11.959,19.13c-15.039-3.059-7.966,15.993-9.563,26.337c-3.194,0-6.391,0-9.585,0
		c-0.021-16.091,5.787-25.987-9.584-28.714c-2.396-7.208,5.337-4.247,9.584-4.792C306.829,353.418,338.349,353.418,340.082,367.309z
		"/>
	<path fill-rule="evenodd" clip-rule="evenodd" d="M435.812,357.744c13.247,13.111,13.364,39.312,23.961,55.052
		c-7.598-1.967-8.884-10.266-11.961-16.753c-8.768-2.123-12.779,4.228-16.753,0c0.076,7.267,1.364,15.76-7.21,14.358
		C422.993,390.627,430.592,380.653,435.812,357.744z M435.812,388.854c3.312-0.098,5.26,1.13,7.206,2.396
		c-0.271-6.137-1.363-11.416-4.791-14.358C439.202,382.66,433.864,382.094,435.812,388.854z"/>
	<path fill-rule="evenodd" clip-rule="evenodd" d="M486.111,386.459c4.871-3.896,12.508-5.026,16.754-9.566
		c-2.026-15.41-13.831-14.377-23.962-11.98C506.878,339.334,526.788,397.134,486.111,386.459z"/>
	<path fill-rule="evenodd" clip-rule="evenodd" d="M555.502,367.309c1.131,8.475,5.338,13.832,4.794,23.942
		c-6.976,10.559-19.248,15.838-35.884,16.753c-4.948-17.727,0.154-33.351,0-47.864C535.204,353.633,546.854,364.017,555.502,367.309
		z M526.788,367.309c12.39,9.624,3.194,15.487,4.792,33.526c10.325,1.559,13.403-4.149,19.169-7.188
		C554.723,374.925,539.294,354.042,526.788,367.309z"/>
	<path fill-rule="evenodd" clip-rule="evenodd" d="M624.934,357.744c15.545,7.052,5.298,42.917-4.793,52.657
		c-0.585-16.15-10.286-23.221-16.753-33.507c-2.807,8.571-4.91,25.384-9.585,33.507c-13.481-10.228,6.389-37.188,0-47.864
		c10.909-1.267,22.754,17.124,26.338,31.111C624.038,383.945,625.05,371.399,624.934,357.744z"/>
	<path fill-rule="evenodd" clip-rule="evenodd" d="M670.44,360.14c-14.026,6.117-21.39,25.617-21.546,38.3
		c2.417,5.552,8.221,7.714,16.755,7.169c4.713-1.655,6.389-6.371,7.168-11.961c-1.48-5.688-14.728,0.371-16.753-4.792
		c3.232-7.111,16.52-4.208,26.337-4.792c-2.338,7.248-6.312,12.838-7.208,21.546C628.401,432.083,633.504,349.269,670.44,360.14z"/>
	<path fill-rule="evenodd" clip-rule="evenodd" d="M469.358,362.536c16.987,8.163,0.623,38.941,9.545,45.468
		c-4.87,5.124-9.467-0.662-14.338-2.396C469.28,389.244,468.773,382.504,469.358,362.536z"/>
	<path fill-rule="evenodd" clip-rule="evenodd" d="M122.247,364.913c11.474,3.409,1.129,22.403,2.377,31.13
		c5.96,7.326,14.531-2.863,23.941,0c-8.845,7.968-23.495,8.669-35.905,7.17C119.617,389.322,114.514,378.938,122.247,364.913z"/>
	<path fill-rule="evenodd" clip-rule="evenodd" d="M285.029,410.4c-33.505,2.221-21.213-39.177,4.772-35.903
		C300.966,384.549,295.724,403.427,285.029,410.4z M270.653,400.835c2.688,0.507,3.739,2.649,4.793,4.773
		c14.336,3.701,18.875-21.565,9.583-26.318C278.172,384.413,271.451,389.653,270.653,400.835z"/>
	<path fill-rule="evenodd" clip-rule="evenodd" d="M155.752,376.893c12.995,5.922,1.773,21.799,9.568,33.507
		C147.862,412.251,154.136,387.413,155.752,376.893z"/>
	<path fill-rule="evenodd" clip-rule="evenodd" d="M234.75,381.667c-1.851,10.13-11.184,12.779-21.546,14.376
		c0.837,3.137,4.207,3.761,4.792,7.17c7.676-0.332,10.461-12.761,16.754-7.17c-2.514,7.851-10.286,10.461-16.754,14.358
		c-14.455-4.013-11.006-11.221-11.98-28.734C212.462,375.433,228.3,375.433,234.75,381.667z M213.204,384.062
		c0,2.397,0,4.792,0,7.189c5.59-0.799,10.305-2.455,11.959-7.189C220.604,379.581,219.164,383.809,213.204,384.062z"/>
	<path fill-rule="evenodd" clip-rule="evenodd" d="M170.111,381.667c14.552-5.708,31.754,6.526,28.733,26.337
		c-10.616-1.363-7.558-16.364-14.376-21.545c-7.306,4.948,2.103,21.312-2.377,23.941
		C166.527,412.388,176.695,388.66,170.111,381.667z"/>
	<path fill-rule="evenodd" clip-rule="evenodd" d="M486.111,396.042c6.585-3.312,22.91,4.13,23.922,14.358
		C500.254,407.42,493.554,401.342,486.111,396.042z"/>
	<path fill-rule="evenodd" clip-rule="evenodd" d="M390.344,376.893c-1.559-2.435-5.495-2.474-4.793-7.188
		c4.56-4.481,6.02-0.253,11.98,0c-0.057,16.208-2.942,20.377,0,31.13c11.553-8.416,6.645-33.253,19.15-40.695
		c-0.39,14.825-6.429,40.716-19.15,45.469c-5.571-2.396-7.714-8.241-7.187-16.754c-8.922,3.838-7.015,18.526-11.963,26.339
		c-15.115-1.423-9.759-30.352-7.187-45.488c10.792,2.707,2.396,23.649,2.396,31.13C386.39,394.777,378.946,373.191,390.344,376.893z
		"/>
	<path fill-rule="evenodd" clip-rule="evenodd" d="M761.378,254.806c1.053,3.545,3.078-0.956,7.208,0
		c6.272,32.162,14.064,62.124,23.923,93.353c1.792,74.145-1.87,165.12-45.469,232.213c0.428,2.728,2.377,1.325,2.377,0
		c7.52,4.637-7.052,7.091-9.585,9.585c5.416,7.13-6.976,12.468-4.794,23.922c-31.207,26.222-48.038,66.858-81.391,90.976
		c-17.415,4.092-27.39,15.663-35.884,28.716c-30.662,10.014-63.975,27.663-93.352,43.092c-6.508-2.26-20.924-3.117-21.547,7.169
		c-24.039-8.571-29.144,12.624-52.677,4.791c-28.91,15.196-65.885-2.376-93.354,7.17c-29.805-5.882-54.761-17.727-83.787-19.13
		c-5.007-19.131-31.288,0.234-38.299-21.546c-48.663-11.923-95.01-61.326-136.444-95.769c0-3.975,0-7.987,0-11.961
		c-4.306-0.312-5.048,2.922-9.587,2.415C45.55,572.774,0.686,497.422,7.328,403.213c-4.461,1.46-2.221-80.613,11.981-69.412
		c-1.053-2.942-3.079-4.91-7.189-4.792c5.63-25.695,10.617-43.988,19.151-59.847c7.46-13.851,8.687-40.5,21.546-45.488
		c0.972-5.766-4.366-5.202-2.398-11.961c27.039-26.708,44.592-76.423,83.787-98.146c4.268-13.323,28.405-19.421,28.737-28.733
		c19.303-8.61,32.609-23.222,52.656-31.112c2.805-0.39,2.025-4.363,2.396-7.189c38.729-9.428,85.015-35.532,122.087-28.714
		c3.546-1.053-0.953-3.059,0-7.189c4.461-0.331,7.988-1.578,9.566-4.792c26.28,9.701,65.475-7.871,90.957,7.187
		c3.584-2.805,9.819-2.98,12.001-7.187c66.858,25.285,136.716,34.696,172.328,78.995c3.39,0.214,6.778,0.409,7.208-2.397
		c31.247,30.976,69.975,54.469,88.559,98.165C740.923,193.44,754.56,231.138,761.378,254.806z M452.605,776.662
		c23.609,1.014,52.403-12.896,69.39-14.377c-1.44-0.117-2.805-0.351-2.377-2.377c24.353-6.194,49.756-14.923,69.432-33.507
		c29.377-0.43,50.923-41.262,76.6-45.508c0.154-4.169-0.547-7.441-2.417-9.584c29.377-8.104,29.223-45.742,55.054-57.431
		c7.286-24.74,37.949-57.04,38.299-88.561c15.39-5.104,1.403-24.818,16.792-28.754c-7.674-18.74,11.261-41.649,2.377-62.223
		c14.573-3.895-1.946-28.383,9.585-33.507c-8.57-27.78-7.479-45.644-9.585-79.014c-5.22,0.447-7.636-1.949-7.168-7.17
		c-3.312-48.604-26.884-72.702-43.092-117.294c-3.194,0-6.391,0-9.585,0c-12.857-43.812-50.769-62.554-74.223-95.75
		c-16.014-2.142-37.598-19.714-45.469-31.131C553.556,56.528,492.58,17.08,435.812,24.989c-4.599-0.974-1.872-9.273-9.546-7.168
		c-34.054,3.741-53.224,2.317-83.787,2.396c2.082,7.676-3.684,7.481-7.191,9.566c-28.227,0.097-52.461,9.155-76.598,14.357
		c2.415,0.038,3,4.208,0,4.792c-28.15,7.17-48.898,16.229-59.847,31.131c-47.688,28.112-90.8,60.821-114.898,112.502
		c-3.251,0.761-4.577,3.41-9.584,2.398c-0.544,4.518,2.688,5.278,2.397,9.563c-22.988,14.768-24.956,57.041-40.696,71.827
		c0.466,36.409-23.397,67.54-14.358,100.541c-8.942,15.741-3.799,38.319,0,55.034c-4.129-0.117-6.136,1.87-7.188,4.792
		c7.909,7.208,10.325,27.43,7.188,38.3c7.15,16.247,14.729,39.508,21.545,55.093c6.45,14.728,11.574,32.338,16.755,40.676
		c22.521,36.313,51.429,97.249,74.202,98.145c40.366,55.327,121.776,92.613,181.934,100.562
		c15.35,12.232,35.941,13.401,52.657,7.169c11.864,14.104,33.486-0.936,52.675,9.584C425.836,772.22,443.722,787.22,452.605,776.662
		z"/>
</g>
</svg>
