<?xml version="1.0" encoding="utf-8"?>
<!-- Generator: Adobe Illustrator 14.0.0, SVG Export Plug-In . SVG Version: 6.00 Build 43363)  -->
<!DOCTYPE svg PUBLIC "-//W3C//DTD SVG 1.1//EN" "http://www.w3.org/Graphics/SVG/1.1/DTD/svg11.dtd">
<svg version="1.1" id="Layer_1" xmlns="http://www.w3.org/2000/svg" xmlns:xlink="http://www.w3.org/1999/xlink" x="0px" y="0px"
	 width="800px" height="132px" viewBox="0 0 800 132" enable-background="new 0 0 800 132" xml:space="preserve">
<g>
	<path fill-rule="evenodd" clip-rule="evenodd" d="M448.313,29.91c2.181,0,4.362,0,6.543,0c5.879,16.507,0.373,21.602,0,39.228
		C444.4,61.555,452.436,44.675,448.313,29.91z"/>
	<path fill-rule="evenodd" clip-rule="evenodd" d="M286.491,31.546c6.12-0.12,11.308,0.691,14.714,3.272
		c-1.171,8.181-6.691-2.979-13.078,0c-0.197,2.926,2.011,3.446,1.636,6.531c0.425,3.406,7.185,0.452,8.181,3.273
		c-8.1,2.261-7.448,13.261-9.817,21.256c-10.121-5.8,4.762-18.502-11.439-19.621C280.972,42.374,286.545,39.766,286.491,31.546z"/>
	<path fill-rule="evenodd" clip-rule="evenodd" d="M327.357,31.546c9.55,4.044,11.677,1.636,21.257,3.272
		c-2.501,5.134-12.546,2.714-19.623,3.272c1.092,6.319,0,5.812,1.638,9.803c5.627,0.719,9.165-0.651,13.074-1.636
		c-3.098,7.344-7.808,2.993-14.711,6.545c0.625,5.002,3.1,8.592,1.638,13.076c-2.184,0-4.365,0-6.533,0
		c1.118-8.221-0.985-13.195-3.272-17.985C327.504,46.95,323.672,35.497,327.357,31.546z"/>
	<path fill-rule="evenodd" clip-rule="evenodd" d="M350.25,62.606c-0.666-17.771,2.646-35.809,21.244-29.424
		C386.724,47.508,371.054,77.65,350.25,62.606z M355.144,60.97c6.358,3.446,13.021,0.852,16.349-3.272
		c1.276-9.445-2.05-14.288-4.91-19.607C352.936,35.869,355.385,49.77,355.144,60.97z"/>
	<path fill-rule="evenodd" clip-rule="evenodd" d="M413.991,46.257c-4.787,2.847-9.296,5.96-16.346,6.545
		c1.024-5.521,9.071-4.017,9.803-9.817c-0.092-8.673-9.684-9.046-13.075-6.531C393.652,27.115,417.466,33.142,413.991,46.257z"/>
	<path fill-rule="evenodd" clip-rule="evenodd" d="M443.416,38.09c-1.94,2.42-1.407,7.303-6.544,6.532
		c-0.132,6.119,7.05,4.936,4.896,13.076c-4.338-3.154-4.896,8.406-9.792,9.803c-3.644-1.262-6.384-3.431-11.438-3.258
		c1.038-11.188-0.294-16.269,0-29.425C426.31,29.484,441.128,30.601,443.416,38.09z M427.057,44.622c2.739,0,5.454,0,8.19,0
		c-0.078-2.249,0.772-3.592,1.625-4.909c-2.606-2.82-4.946-5.946-11.44-4.895C424.246,39.819,428.252,39.62,427.057,44.622z
		 M428.706,64.243c5.456-1.092,8.886-4.203,8.166-11.44c-3.404-0.944-4.654-4.057-9.815-3.272
		C427.402,54.638,425.965,61.529,428.706,64.243z"/>
	<path fill-rule="evenodd" clip-rule="evenodd" d="M466.296,31.546c32.78-3.246,26.071,37.831,3.274,34.333
		C459.034,61.169,467.548,38.41,466.296,31.546z M467.946,38.09c7.104,1.597,1.435,15.976,3.244,22.879
		C493.699,64.269,481.887,24.429,467.946,38.09z"/>
	<path fill-rule="evenodd" clip-rule="evenodd" d="M497.344,31.546c31.313-3.752,30.277,38.018,0,34.333
		C494.18,53.135,497.025,42.453,497.344,31.546z M498.994,38.09c7.502,6.757,3.005,11.865,3.271,22.879
		c6.041,0.066,9.472-2.514,13.062-4.908C518.068,43.278,507.507,29.031,498.994,38.09z"/>
	<path fill-rule="evenodd" clip-rule="evenodd" d="M534.963,31.546c7.13,10.828,10.107,25.833,16.335,37.592
		c-6.145-0.386-6.386-6.705-8.168-11.44c-5.96-1.451-8.7,2.886-11.438,0c-2.422,2.515,3.297,11.519-6.546,9.803
		C527.832,54.013,530.174,45.313,534.963,31.546z M539.857,52.803c-1.517-2.86,0.054-8.78-4.895-8.181
		C534.988,48.945,533.419,54.865,539.857,52.803z"/>
	<path fill-rule="evenodd" clip-rule="evenodd" d="M579.073,33.182C590.245,31,585.059,63.59,577.449,67.5
		c-0.427-11.026-7.022-15.855-11.439-22.878c-3.564,4.789-0.373,17.479-9.816,22.878c-3.62-10.667,5.718-19.66,3.272-34.319
		c8.433,4.643,15.164,11.001,16.36,22.88C580.51,53.082,580.747,37.092,579.073,33.182z"/>
	<path fill-rule="evenodd" clip-rule="evenodd" d="M616.691,33.182c-6.917,3.432-19.421,5.281-21.256,17.985
		c3.005,12.423,21.572,16.761,29.423,6.531c-7.052,20.551-42.116,5.055-34.32-16.349C599.744,39.886,606.607,28.485,616.691,33.182z
		"/>
	<path fill-rule="evenodd" clip-rule="evenodd" d="M629.754,31.546c5.213,3.192,13.834-1.837,22.879,0
		c-4.656,5.148-16.441,3.165-16.333,13.076c2.233,3.206,10.003,0.877,13.062,3.271c-2.609,2.834-7.346,3.539-13.062,3.273
		c0,3.804,0,7.623,0,11.439c6.091-1.543,9.071-6.171,17.983-4.908c-5.906,6.026-15.696,11.507-26.15,8.181
		C624.778,55.902,637.15,40.352,629.754,31.546z"/>
	<path fill-rule="evenodd" clip-rule="evenodd" d="M384.567,34.818c1.638,0,3.273,0,4.911,0c0.93,14.473,2.315,22.627,0,32.683
		c-2.94,0.214-3.446-1.995-6.544-1.622C383.227,55.516,386.459,45.14,384.567,34.818z"/>
	<path fill-rule="evenodd" clip-rule="evenodd" d="M157.369,36.454c-1.796,6.372-1.131,15.217-3.273,21.244
		c3.724,4.669,9.576-2.302,16.347,0c-5.2,5.068-15.936,6.066-22.892,4.908C151.25,54.24,144.679,41.043,157.369,36.454z"/>
	<path fill-rule="evenodd" clip-rule="evenodd" d="M229.28,46.257c0.281,8.434-6.492,9.844-13.062,11.44
		c3.87,9.657,6.49-0.826,13.062-1.636c-0.465,8.248-6.052,11.387-14.698,11.439C204.604,55.529,212.56,37.478,229.28,46.257z
		 M217.84,54.425c0.451-3.365,7.238-0.385,6.544-4.895C221.951,45.247,212.174,51.1,217.84,54.425z"/>
	<path fill-rule="evenodd" clip-rule="evenodd" d="M268.521,42.985c6.094,9.644,3.431,22.64-4.909,24.515
		C245.986,71.491,244.206,40.618,268.521,42.985z M255.445,60.97c3.247,0.027,2.075,4.457,6.531,3.273
		c5.413-1.344,7.103-12.558,4.91-16.349C258.718,47.894,254.925,52.284,255.445,60.97z"/>
	<path fill-rule="evenodd" clip-rule="evenodd" d="M175.354,44.622c9.312,0.492,2.552,17.053,6.529,22.878
		C170.432,69.151,177.148,52.629,175.354,44.622z"/>
	<path fill-rule="evenodd" clip-rule="evenodd" d="M186.793,46.257c3.91,0.985,7.448,2.355,13.074,1.636
		c0.985,5.6,10.391,11.32,4.896,17.985c-4.854-2.767-5.733-9.537-8.167-14.712c-6.57,1.796-1.731,11.386-1.637,16.334
		C182.67,64.229,190.424,56.778,186.793,46.257z"/>
	<path fill-rule="evenodd" clip-rule="evenodd" d="M397.646,56.062c7.528,1.743,13.716,4.815,16.346,11.439
		C407.113,65.12,400.744,62.232,397.646,56.062z"/>
	<path fill-rule="evenodd" clip-rule="evenodd" d="M785.042,95.291c-3.885,6.411-14.951,6.331-22.88,6.543
		c-76.273,1.97-178.008-1.145-264.818-1.637c-45.866-0.252-95.124,2.808-132.383,3.26c-8.607,0.106-17.146-1.783-26.151-1.623
		c-18.183,0.292-38.961-2.448-58.849,1.623c-36.727-3.193-88.87-3.033-120.956,0c-56.253-5.588-88.713,1.224-142.213-3.26
		c3.22-9.51,20.805-5.041,24.517-6.531c150.262,0.452,315.353-0.877,465.852,1.625c4.126,0.078,5.241-2.688,9.82-3.261
		c7.447-0.944,17.186,3.22,27.774,3.261c25.616,0.105,49.003-1.104,83.378-1.625c10.002-0.159,15.562,1.557,26.15,1.625
		c9.711,0.065,20.459-5.109,27.773,0C710.311,93.999,753.463,92.508,785.042,95.291z"/>
</g>
</svg>
