<?xml version="1.0" encoding="utf-8"?>
<!-- Generator: Adobe Illustrator 14.0.0, SVG Export Plug-In . SVG Version: 6.00 Build 43363)  -->
<!DOCTYPE svg PUBLIC "-//W3C//DTD SVG 1.1//EN" "http://www.w3.org/Graphics/SVG/1.1/DTD/svg11.dtd">
<svg version="1.1" id="Layer_1" xmlns="http://www.w3.org/2000/svg" xmlns:xlink="http://www.w3.org/1999/xlink" x="0px" y="0px"
	 width="800px" height="321px" viewBox="0 0 800 321" enable-background="new 0 0 800 321" xml:space="preserve">
<g>
	<path fill-rule="evenodd" clip-rule="evenodd" d="M194.249,294.442c13.376-24.713,10.708-46.958,9.741-68.184
		c-8.976,3.683-30.412,8.015-33.545-8.647c-12.516,8.155-29.179,4.844-41.129,3.24c-8.869,8.438-14.77,4.58-27.055,4.333
		c1.462,23.109-0.017,41.533,0,62.758c-7.451-18.723,0.872-47.592-4.325-66.017c8.684-1.832,20.071,3.33,27.056-1.074
		c-6.149-8.7-22.283-12.981-21.647-24.888c11.123,14.32,28.472,27.372,53.025,23.813c17.174-2.501,26.941-14.514,35.713-25.98
		c-0.151-2.007-0.714-3.61-2.159-4.333c0.3-2.5,2.89-2.483,4.325-1.074c5.109-30.894-2.915-55.588-19.481-72.507
		c-6.684,0.547-9.563,2.792-15.147,0c2.775-4.446,10.165-4.271,14.065-7.582c7.707-17.657,13.43-51.626-11.899-48.693
		c-3.039,1.065,1.569,2.889-1.082,4.324c-14.47,1.251-34.356,5.381-35.711,19.48c-0.925,9.547,8.479,14.417,7.573,24.888
		c0.854,2.395,5.082,1.409,5.408,4.333c1.338,3.505-3.496,0.828-2.159,4.324c-23.506,1.04-30.472,18.6-38.96,34.638
		c-0.529,3.408,3.32,2.448,2.166,6.491c-2.263-0.457-2.872,0.74-4.334,1.083c-2.429,17.667,6.096,26.209,8.659,36.795
		c-10.964,2.395-25.549,3.487-30.305-5.406c-6.976,16.555-15.21,39.294-14.065,63.849c-10.814-22.423,7.892-45.196,9.741-70.35
		c7.344,5.16,17.121,12.84,29.22,9.74c-2.288-8.929-9.239-25.258-6.499-36.794c-8.49-4.854-16.601-10.092-20.556-19.481
		c-2.87,2.185-3.294,6.808-8.657,6.5c-9.635,11.29-22.757,19.084-31.388,31.37c-7.521,3.418-11.528,15.746-18.397,16.241
		c8.022-11.503,18.08-26.598,30.304-30.297c0.097-2.959-1.805-2.183,0-4.333c11.29-7.468,18.389-19.119,32.462-23.804
		c-1.795,10.102,8.772,16.212,17.314,19.471c3.479-7.345,5.954-15.694,11.907-20.555c-13.915-10.886-17.462-32.621-5.407-45.452
		c-0.104-2.783-4.227-1.55-4.334-4.333c-21.911,0.052-33.431,5.953-53.025,9.74c16.125-10.048,42.801-16.637,63.85-9.74
		c-9.565,8.146-16.565,39.578,1.084,44.369c6.737-5.883,12.848-12.392,24.887-12.981c-2.8-11.343-11.113-22.696-7.573-36.795
		c0.324-2.897-8.852-7.274-9.741-8.657c-10.912-16.926,6.932-38.812,22.722-42.202c-9.943,13.438-8.084,38.662,8.657,36.785
		c3.072-0.343,16.979-9.846,18.397-11.898c5.214-7.539,3.197-17.992,0-25.972c-2.122-3.646-8.623-2.923-8.657-8.657
		c11.115,2.449,27.496,16.909,29.221,29.212c0.696,4.95-4.184,10.083-4.325,15.157c-0.149,5.081,4.819,8.542,5.409,14.064
		c0.273,2.58-1.717,9.714-2.166,11.907c-1.92,9.414-5.056,21.057-10.825,25.971c6.897,3.567,12.462,8.463,16.241,15.149
		c6.208-1.876,13.861-9.38,16.229-17.316c2.22-7.441,1.542-19.04-2.166-22.721c15.942-9.679,42.881,1.568,64.933,1.083
		c-10.093,8.728-34.558-5.733-50.86,0c-4.254-2.607-4.625-1.065-8.667,1.074c3.119,19.578-2.57,35.36-18.388,40.046
		c6.315,8.278,6.289,18.361,8.649,29.22c11.291-4.561,21.585-13.518,21.648-25.97c25.707,0.624,36.908,15.754,49.784,29.211
		c6.605,2.774,12.646,6.113,14.066,14.073c-22.423-14.593-31.477-34.61-59.518-40.044c-5.029,12.294-11.783,22.854-25.98,25.971
		c-0.898,11.66,0.695,17.983-2.158,27.055c9.405,1.921,25.539,0.985,32.463-7.573c13.642,17.067,25.256,35.809,23.813,62.775
		c-5.619-4.615-4.413-21.401-5.416-27.055c-6.783-8.384-9.336-20.819-18.397-29.222c-11.97,5.003-21.975,5.654-34.629,6.481
		c-5.073,9.371-13.167,15.693-20.564,22.74c5.329,15.06,25.963,5.918,32.471,2.166C208.841,243.046,212.354,281.812,194.249,294.442
		z M162.87,57.44c4.35-5.01,8.058-1.029,14.063,0c9.346-10.797-1.462-20.723-7.573-28.137
		C173.895,41.015,165.898,53.486,162.87,57.44z M124.992,72.589c4.481-2.37,8.85-4.853,12.981-7.575
		c-13.044-7.643-11.634-19.348-9.741-30.294C113.551,41.184,110.143,63.958,124.992,72.589z"/>
	<path fill-rule="evenodd" clip-rule="evenodd" d="M394.454,72.589c3.357-0.106,5.17,1.329,7.574,2.166
		c-1.33,3.284-3.725-1.172-6.491,0c0,1.083,0,2.166,0,3.25c0.334,1.471,2.705,0.898,4.325,1.082
		c-2.441,2.969-5.759,5.055-4.325,11.899c-5.284-2.677-0.307-9.565-6.5-11.899C393.996,80.074,392.129,74.236,394.454,72.589z"/>
	<path fill-rule="evenodd" clip-rule="evenodd" d="M672.575,118.041c7.187,3.998,10.604,11.757,17.314,16.239
		c14.302,0.168,18.107-15.165,21.646-19.479c1.832,6.631-7.643,20.405-18.405,21.638c1.391,3.312,3.981,5.407,4.332,9.74
		c3.152-0.828,2.819-5.125,7.575-4.324c-2.149,3.258-4.369,6.455-8.649,7.574c-5.531-9.987-14.602-16.434-19.479-27.055
		c-7.592,1.232-7.75-4.13-18.407-3.249c4.439-5.531,12.277,0.845,18.407-5.408c3.893-7.592,3.133-18.169,4.332-25.972
		c-4.015-5.724-9.987-9.493-14.073-15.156C686.7,75.151,689.308,110.775,672.575,118.041z"/>
	<path fill-rule="evenodd" clip-rule="evenodd" d="M452.897,73.671c2.378,0.141,0.458,4.597,1.073,6.5
		c2.837-0.784,3.312-3.901,6.499-4.333c0.847,3.734-1.021,4.765-3.258,5.408c0.67,4.042,4.086,5.311,4.334,9.741
		c-3.876-0.811-4.193-5.18-6.483-7.575c-2.429,0.467-0.44,5.337-1.092,7.575C447.524,89.128,452.756,78.797,452.897,73.671z"/>
	<path fill-rule="evenodd" clip-rule="evenodd" d="M312.207,75.838c5.312,0.891-0.765,6.465,1.084,10.825
		c0.149,1.788,4.51-1.136,7.575,0c-3.479,2.421-7.619,3.161-11.909,2.166C310.859,85.305,310.313,79.353,312.207,75.838z"/>
	<path fill-rule="evenodd" clip-rule="evenodd" d="M159.62,78.005c4.378-1.216,5.345,3.32,3.25,5.407
		C160.73,82.664,159.98,80.523,159.62,78.005z"/>
	<path fill-rule="evenodd" clip-rule="evenodd" d="M365.233,80.171c-0.589,4.958-6.764-1.937-7.573,3.241
		c2.059,2.264,8.321,0.335,6.488,6.49c-3.557,0.054-5.389,1.833-9.74,1.084c-1.021-3.911,4.264-1.506,6.5-2.159
		c-0.291-3.69-4.878-3.065-6.5-5.416c0.572-0.873,1.138-1.752,1.083-3.241C359.527,80.823,362.336,77.396,365.233,80.171z"/>
	<path fill-rule="evenodd" clip-rule="evenodd" d="M384.715,79.087c3.153,3.242,1.496,8.747-1.084,11.899
		c-4.641,0.678-6.975-0.96-8.656-3.242C374.726,81.36,378.699,79.202,384.715,79.087z M381.465,89.902
		c3.039-0.572,1.998-5.213,3.25-7.573C380.54,77.67,374.217,89.64,381.465,89.902z"/>
	<path fill-rule="evenodd" clip-rule="evenodd" d="M492.933,96.403c-1.867,0.149-8.858,3.513-8.667-1.084
		c3.419-0.546,4.247,2.361,6.5,0c0.441-2.607-1.973-2.351-1.074-5.417c-0.017-1.761-6.13,1.735-7.574-1.074
		C482.363,71.902,498.463,80.902,492.933,96.403z M485.359,87.745c6.447,0.273,5.073-4.8,4.332-7.574
		C485.745,80.207,484.936,83.351,485.359,87.745z"/>
	<path fill-rule="evenodd" clip-rule="evenodd" d="M142.306,80.171c1.084,0,2.156,0,3.241,0c-0.123,2.756-0.203,5.566-3.241,5.407
		C142.306,83.773,142.306,81.967,142.306,80.171z"/>
	<path fill-rule="evenodd" clip-rule="evenodd" d="M324.114,80.171c3.594,0.061,2.607,10.304,2.158,10.815
		C321.957,89.595,323.507,84.002,324.114,80.171z"/>
	<path fill-rule="evenodd" clip-rule="evenodd" d="M329.522,80.171c2.544-0.027,3.187,1.859,6.488,1.074
		c1.745,2.59,3.569,5.1,3.252,9.741c-3.092-1.233-2.431-6.218-5.409-7.575c-2.916,1.286,0,5.645,0,7.575
		C327.919,89.48,331.274,84.857,329.522,80.171z"/>
	<path fill-rule="evenodd" clip-rule="evenodd" d="M464.804,80.171c3.011,0.634,2.978,9.926,2.148,10.815
		C462.637,89.595,464.188,84.002,464.804,80.171z"/>
	<path fill-rule="evenodd" clip-rule="evenodd" d="M470.211,80.171c1.269,1.242,3.822,1.224,6.482,1.074
		c1.742,2.59,3.575,5.1,3.257,9.741c-3.099-1.233-2.431-6.218-5.406-7.575c-2.924,1.286,0,5.645,0,7.575
		C468.291,89.788,471.938,84.884,470.211,80.171z"/>
	<path fill-rule="evenodd" clip-rule="evenodd" d="M643.354,84.496c-4.352-0.027-6.184,2.474-7.573,5.406
		C632.398,87.04,642.596,76.702,643.354,84.496z"/>
	<path fill-rule="evenodd" clip-rule="evenodd" d="M660.667,81.246c3.98,1.427,7.979,2.845,8.667,7.583
		C665.547,87.208,661.32,86.01,660.667,81.246z"/>
	<path fill-rule="evenodd" clip-rule="evenodd" d="M290.559,105.06c1.815,1.567,3.172,6.437,1.084,8.657
		c5.908-2.695,9.414,3.55,8.657,10.824c-4.086-0.599-1.24-8.138-5.406-8.658c-4.678-0.351-1.155,7.504-5.417,7.575
		C290.023,117.504,288.288,109.277,290.559,105.06z"/>
	<path fill-rule="evenodd" clip-rule="evenodd" d="M434.491,105.06c1.813,1.567,3.17,6.437,1.092,8.657
		c6.182-2.149,9.512,2.897,8.647,10.824c-4.032-0.3-1.426-7.24-4.332-8.658c-5.303-0.624-2.536,6.834-6.483,7.575
		C433.68,117.239,432.605,109.657,434.491,105.06z"/>
	<path fill-rule="evenodd" clip-rule="evenodd" d="M361.983,106.143c1.084,0,2.166,0,3.25,0c-1.039,4.641,0.767,6.446,5.407,5.408
		c0.141,3.742-5.628,1.576-6.491,4.332c1.657,3.436,0.38,4.756,0,8.658c-4.729-0.679,1.041-13.923-5.407-9.74
		C358.742,110.836,363.806,111.928,361.983,106.143z"/>
	<path fill-rule="evenodd" clip-rule="evenodd" d="M422.583,106.143c1.093,0,2.168,0,3.259,0c-0.774,4.368,1.039,6.173,5.407,5.408
		c-3.434,2.695-7.081,5.187-5.407,12.99c-6.252-1.629-0.034-12.717-5.408-10.824C422.336,109.964,423.922,112.167,422.583,106.143z"
		/>
	<path fill-rule="evenodd" clip-rule="evenodd" d="M457.212,106.143c1.04,5.098,1.728,10.551,6.5,11.898
		c0.546,6.639-5.442,6.332-9.741,5.416C457.141,119.767,452.421,108.186,457.212,106.143z M459.377,122.374
		c0.021-2.149,2.961-1.373,2.169-4.333c-1.481,0.053-2.378-0.511-3.241-1.084C458.902,118.533,457.036,122.559,459.377,122.374z"/>
	<path fill-rule="evenodd" clip-rule="evenodd" d="M313.291,111.551c4.537-0.926,2.369,4.843,4.325,6.49
		c2.403-0.845-0.204-6.693,4.333-5.408c-1.18,3.875-1.691,8.411-3.25,11.907C315.289,121.81,316.083,114.888,313.291,111.551z"/>
	<path fill-rule="evenodd" clip-rule="evenodd" d="M356.577,112.633c-1.014,4.536-5.999-1.18-7.575,3.249
		c1.859,2.467,7.689,0.96,6.49,6.491c-3.82,0.247-9.017,4.385-9.74-1.083c3.408-0.538,4.237,2.36,6.5,0
		c-1.489-2.485-4.456-3.479-6.5-5.409c0.573-0.871,1.127-1.761,1.084-3.249C351.777,113.179,352.973,110.757,356.577,112.633z"/>
	<path fill-rule="evenodd" clip-rule="evenodd" d="M417.177,113.717c0,5.045,0,10.102,0,15.147
		c-2.291,1.912-7.759,3.375-8.658-1.082c2.527,0.333,4.465,2.122,6.491,0c0.439-2.607-1.974-2.353-1.074-5.409
		c-4.193,0.669-4.456,0.898-7.574-1.083C405.164,113.522,412.457,109.163,417.177,113.717z M409.601,121.291
		c3.929-0.036,4.757-3.179,4.335-7.574C408.563,113.073,408.591,118.463,409.601,121.291z"/>
	<path fill-rule="evenodd" clip-rule="evenodd" d="M490.766,112.633c-1.004,4.536-5.988-1.18-7.574,3.249
		c1.852,2.467,7.699,0.96,6.5,6.491c-3.84,0.247-9.019,4.385-9.741-1.083c3.401-0.538,4.229,2.36,6.482,0
		c-0.863-2.739-4.455-2.758-6.482-4.334c-0.14-1.937,1.321-2.28,1.075-4.324C485.465,113.682,487.967,109.957,490.766,112.633z"/>
	<path fill-rule="evenodd" clip-rule="evenodd" d="M372.806,112.633c1.445,1.805,6.13,0.362,7.575,2.167
		c-0.933,3.143-1.62,1.214-4.325,1.082c0.626,1.903-1.311,6.359,1.084,6.491C371.485,124.038,373.944,117.504,372.806,112.633z"/>
	<path fill-rule="evenodd" clip-rule="evenodd" d="M394.454,112.633c3.954,2.017,10.488,1.717,9.74,10.824
		c-4.095,0.123-1.612-6.332-5.416-6.5c-3.048,1.102,0.299,4.597,0,6.5C391.547,123.246,396.647,116.879,394.454,112.633z"/>
	<path fill-rule="evenodd" clip-rule="evenodd" d="M680.148,136.438c0.971,0.485,1.938,0.951,2.166,2.167
		c-2.958,13.968-8.488,19.418-20.556,24.888C653.675,146.611,661.778,137.557,680.148,136.438z M663.927,142.938
		c0.458,6.085-0.862,10.146,5.407,11.898c2.202-4.131,11.344-10.947,6.482-15.148C673.701,143.934,668.118,139.186,663.927,142.938z
		"/>
	<path fill-rule="evenodd" clip-rule="evenodd" d="M349.002,137.521c1.814,1.568,3.17,6.446,1.084,8.657
		c0.158,2.413,2.722-1.4,5.406,0c2.283,2.193,4.968,8.05,2.168,11.907c-2.512-1.462,0.202-8.137-3.252-8.657
		c-6.674-2.353-1.875,6.772-6.489,6.49C348.456,149.966,346.721,141.74,349.002,137.521z"/>
	<path fill-rule="evenodd" clip-rule="evenodd" d="M337.095,138.605c1.084,0,2.168,0,3.25,0c-1.04,4.641,0.765,6.447,5.407,5.416
		c-5.619,3.17-6.05,5.953-6.489,12.981c-4.731-0.678,1.038-13.915-5.409-9.741C336.083,143.343,339.103,145.139,337.095,138.605z"/>
	<path fill-rule="evenodd" clip-rule="evenodd" d="M439.898,138.605c3.752,1.69,2.57,13.985,1.091,17.314
		C436.27,152.167,441.289,146.645,439.898,138.605z"/>
	<path fill-rule="evenodd" clip-rule="evenodd" d="M476.693,138.605c1.092,0,2.166,0,3.257,0c-0.774,4.377,1.041,6.182,5.409,5.416
		c-3.436,2.695-7.08,5.179-5.409,12.981c-6.604-0.846,1.745-10.462-5.406-9.741C475.882,142.682,478.313,144.813,476.693,138.605z"
		/>
	<path fill-rule="evenodd" clip-rule="evenodd" d="M306.8,157.002C283.805,151.507,322.053,134.835,306.8,157.002L306.8,157.002z
		 M302.468,154.836c6.525,2.043,8.243-8.579,3.249-8.658C304.247,148.679,301.367,149.764,302.468,154.836z"/>
	<path fill-rule="evenodd" clip-rule="evenodd" d="M402.028,157.002C378.814,151.331,417.3,135.064,402.028,157.002L402.028,157.002
		z M397.696,154.836c1.443,0,2.888,0,4.332,0c0.96-3.004,3.91-8.252-1.084-8.658C399.28,149.244,395.459,150.794,397.696,154.836z"
		/>
	<path fill-rule="evenodd" clip-rule="evenodd" d="M457.212,144.021c2.044,0.995,5.021,5.768,6.5,1.074
		c0.105,3.761-1.004,7.143,2.166,11.907c-3.558,0.519-5.706-5.073-7.573,0c-2.854-1.216,1.443-4.192,2.165-5.408
		C459.977,148.477,456.629,148.205,457.212,144.021z"/>
	<path fill-rule="evenodd" clip-rule="evenodd" d="M391.204,148.345c-1.417-0.378-1.699-1.902-3.241-2.167
		c-3.285,0.343-4.394,6.111-2.166,8.658c2.28-0.96,3.197-3.294,6.49-3.242c-1.286,4.616-7.821,6.166-10.823,3.242
		C378.857,147.49,389.038,140.727,391.204,148.345z"/>
	<path fill-rule="evenodd" clip-rule="evenodd" d="M426.917,145.095c3.523-0.625,5.036,0.741,7.574,1.083
		c-0.141,1.946,1.32,2.281,1.092,4.333c-0.582,5.188-8.016,3.532-5.426,11.898C424.556,158.561,428.941,151.701,426.917,145.095z
		 M430.157,152.669c4.368,1.057,4.368-6.464,0-5.407C430.157,149.067,430.157,150.873,430.157,152.669z"/>
	<path fill-rule="evenodd" clip-rule="evenodd" d="M469.118,145.095c3.225,0.802,2.783,10.876,2.167,11.907
		C467.128,155.268,468.485,149.032,469.118,145.095z"/>
	<path fill-rule="evenodd" clip-rule="evenodd" d="M313.291,147.262c2.254-1.533,4.403-0.159,7.575,0
		c0.062,3.549,3.073,4.14,2.166,8.657c-4.095,0.132-1.612-6.324-5.416-6.49c-3.267,1.638,0.897,4.748,0,7.574
		C312.287,157.636,316.136,149.111,313.291,147.262z"/>
	<path fill-rule="evenodd" clip-rule="evenodd" d="M408.519,147.262c6.421-0.942,8.621-0.396,15.157,0
		c-1.057,4.43,2.678,6.931,0,9.741c-4.721-0.837,1.831-7.345-4.334-7.574c-2.395,0.132-0.458,4.589-1.074,6.49
		c-4.51,0.528-1.708-6.235-5.424-6.49c-2.414,0.466-0.424,5.328-1.074,7.574C405.922,156.157,411.364,149.974,408.519,147.262z"/>
	<path fill-rule="evenodd" clip-rule="evenodd" d="M487.525,146.179c3.804,0.52,3.558,5.099,4.333,8.658
		c3.856-1.181,4.227-5.866,6.482-8.658c1.408,5.398-5.708,11.59-7.575,17.314C491.383,157.883,490.238,153.154,487.525,146.179z"/>
	<path fill-rule="evenodd" clip-rule="evenodd" d="M372.806,171.075c5.567-0.528,1.023,9.071,8.659,6.482
		c-6.598,2.201-5.962,6.041-6.49,13c-4.854-0.565,1.374-12.208-5.409-10.833C370.632,176.817,374.506,176.729,372.806,171.075z"/>
	<path fill-rule="evenodd" clip-rule="evenodd" d="M408.519,171.075c5.751-0.704,0.485,9.616,8.658,6.482
		c-6.589,2.201-5.954,6.041-6.481,13c-4.861-0.565,1.372-12.208-5.417-10.833C406.344,176.817,410.22,176.729,408.519,171.075z"/>
	<path fill-rule="evenodd" clip-rule="evenodd" d="M475.619,172.149c8.049,0.512,0.316,10.341,4.331,15.147
		c-2.024,3.735-9.263,1.868-9.739-2.165C471.796,180.604,478.031,180.71,475.619,172.149z M476.693,187.297
		c-0.458-2.06-0.387-4.648-3.243-4.315C471.497,184.832,473.787,187.228,476.693,187.297z"/>
	<path fill-rule="evenodd" clip-rule="evenodd" d="M333.854,179.725c-0.924,3.187-2.729-1.409-5.417,0
		c-2.28,0.88-2.967,5.706-1.083,7.572c3.559,0.178,4.775-4.825,7.575-2.165C322.978,199.591,319.543,170.864,333.854,179.725z"/>
	<path fill-rule="evenodd" clip-rule="evenodd" d="M337.095,177.558c1.93,2.06,7.936,0.018,7.575,4.333
		c-6.437-4.632-3.242,5.777-4.324,6.499C335.141,186.487,339.042,182.014,337.095,177.558z"/>
	<path fill-rule="evenodd" clip-rule="evenodd" d="M349.002,177.558c3.884-0.635,5.231,1.269,7.575,2.167
		c-1.172,3.152-4.422,4.244-7.575,5.407c2.079,6.042,5.082-3.295,7.575,0c-1.964,2.378-3.937,4.738-8.657,4.332
		C345.752,185.237,345.867,181.274,349.002,177.558z M349.002,182.981c2.07-0.458,4.658-0.404,4.325-3.257c-1.435,0-2.88,0-4.325,0
		C349.002,180.816,349.002,181.891,349.002,182.981z"/>
	<path fill-rule="evenodd" clip-rule="evenodd" d="M383.631,177.558c3.214,0.811,2.775,10.885,2.167,11.906
		C381.236,189.342,384.722,181.168,383.631,177.558z"/>
	<path fill-rule="evenodd" clip-rule="evenodd" d="M387.963,178.649c0.168-1.269,1.973-0.916,3.241-1.092
		c-0.89,3.064,1.525,2.817,1.083,5.424c1.991-1.267,0.749-5.759,5.409-4.332c-2.377,2.309-2.538,6.835-3.242,10.814
		C388.492,189.658,392.904,179.477,387.963,178.649z"/>
	<path fill-rule="evenodd" clip-rule="evenodd" d="M399.862,177.558c5.046,2.026,1.399,6.358,3.25,11.906
		C397.582,189.94,400.664,181.82,399.862,177.558z"/>
	<path fill-rule="evenodd" clip-rule="evenodd" d="M418.268,179.725c2.66-2.59,4.422,4.896,5.408,7.572
		c3.717-0.949,2.536-6.816,6.481-7.572c-2.166,6.481-4.79,12.523-9.724,16.239C424.117,190.398,420.857,184.727,418.268,179.725z"/>
	<path fill-rule="evenodd" clip-rule="evenodd" d="M458.305,178.649c1.268,1.251,3.821,1.215,6.499,1.075
		c0.916,3.047,3.487,4.438,3.24,8.665c-4.068,0.089-2.518-5.425-5.407-6.499c-1.778-0.176-1.778,6.676,0,6.499
		C458.814,191.771,457.494,183.476,458.305,178.649z"/>
	<path fill-rule="evenodd" clip-rule="evenodd" d="M431.249,186.223c3.752-0.757,3.876,3.789,2.166,5.409
		C431.794,190.716,431.848,188.143,431.249,186.223z"/>
	<path fill-rule="evenodd" clip-rule="evenodd" d="M329.522,203.538c2.209,3.205,4.48,6.34,7.572,8.647
		c-6.912-1.496-5.204,5.619-5.407,10.833c-5.645-2.078,0.485-12.276-5.416-10.833C330.156,208.682,328.411,207.22,329.522,203.538z"
		/>
	<path fill-rule="evenodd" clip-rule="evenodd" d="M340.345,203.538c3.092,0.158,1.981,4.509,2.166,7.572
		c0.255,2.784,1.859-1.479,4.325,0c1.886,1.499,6.298,10.341,1.084,11.908c1.416-3.224,0.044-7.223-3.25-8.666
		c-3.038,1.356-3.576,4.438-2.158,7.573C335.465,219.848,341.534,207.167,340.345,203.538z"/>
	<path fill-rule="evenodd" clip-rule="evenodd" d="M368.483,203.538c2.624,2.783,4.413,6.41,7.573,8.647
		c-6.913-1.496-5.204,5.619-5.416,10.833c-5.636-2.078,0.494-12.276-5.407-10.833C369.117,208.682,367.373,207.22,368.483,203.538z"
		/>
	<path fill-rule="evenodd" clip-rule="evenodd" d="M456.138,203.538c5.566-0.512,1.022,9.088,8.666,6.498
		c-0.422,3.189-4.739,2.485-6.499,4.316c1.672,1.585,0.951,5.549,1.072,8.666c-3.715-0.177-3.997-7.362-2.165-9.74
		c-1.056-3.03-2.871,1.568-4.314-1.093C456.066,209.228,457.828,209.757,456.138,203.538z"/>
	<path fill-rule="evenodd" clip-rule="evenodd" d="M509.174,203.538c2.533,1.057,6.852,0.352,6.48,4.332
		c-2.256-0.633-3.082-2.694-6.48-2.166c0,1.075,0,2.166,0,3.241c0.333,1.479,2.694,0.898,4.315,1.091
		c-5.04,1.074-0.688,11.573-6.483,11.89c-0.651-4.032,2.396-11.782-4.332-9.74C505.297,209.757,507.217,206.638,509.174,203.538z"/>
	<path fill-rule="evenodd" clip-rule="evenodd" d="M654.186,210.036c-2.94-1.215-6.2-0.846-8.666,1.074
		C642.296,208.399,654.89,204.418,654.186,210.036z"/>
	<path fill-rule="evenodd" clip-rule="evenodd" d="M747.238,233.834c-3.894-7.927-7.521-18.583-12.98-25.964
		C740.74,209.967,749.105,226.506,747.238,233.834z"/>
	<path fill-rule="evenodd" clip-rule="evenodd" d="M323.031,211.11c0.529,5.215-6.244-2.165-6.5,3.242
		c1.444,1.814,4.816,1.69,6.5,3.259c-0.158,4.897-5.752,4.351-10.825,4.314c0.151-3.082,4.518-1.972,7.575-2.148
		c-0.67-3.311-5.821-2.132-6.491-5.425C312.938,210.354,321.014,209.174,323.031,211.11z"/>
	<path fill-rule="evenodd" clip-rule="evenodd" d="M394.454,212.186c-3.012-0.546-10.338,1.92-6.491,7.592
		c3.355,0.106,3.083-3.418,7.574-2.166c-0.994,3.329-5.063,3.594-8.657,4.314c-0.036-1.038-1.33-0.827-2.166-1.074
		C382.9,212.873,389.98,207.308,394.454,212.186z"/>
	<path fill-rule="evenodd" clip-rule="evenodd" d="M498.341,210.036c5.53,6.571-1.305,16.435-8.649,10.815
		C487.051,213.56,493.391,210.02,498.341,210.036z M492.933,220.852c5.231,0.547,5.496-3.874,5.408-8.666
		C493.355,211.676,490.149,217.012,492.933,220.852z"/>
	<path fill-rule="evenodd" clip-rule="evenodd" d="M379.306,211.11c3.409,0.248,2.334,10.569,2.159,10.815
		C377.009,222.226,377.659,213.542,379.306,211.11z"/>
	<path fill-rule="evenodd" clip-rule="evenodd" d="M448.563,211.11c5.708,1.815,1.604,9.425-2.167,10.815
		c-4.861,0.177-4.508-4.86-4.332-9.74c4.122-0.863,1.374,5.126,2.166,7.592C449.11,220.323,448.862,215.726,448.563,211.11z"/>
	<path fill-rule="evenodd" clip-rule="evenodd" d="M466.952,211.11c3.77,0.565,2.836,5.831,4.333,8.667
		c4.563-0.492,2.818-7.292,7.574-7.592c-3.099,5.918-4.79,13.246-10.815,16.241C473.628,222.578,467.498,219.057,466.952,211.11z"/>
	<path fill-rule="evenodd" clip-rule="evenodd" d="M701.797,235.999c-3.489,9.02,1.284,12.453,1.074,21.647
		c-8.139-4.333-0.158-15.8-8.649-18.405C695.842,236.265,696.952,237.092,701.797,235.999z"/>
	<path fill-rule="evenodd" clip-rule="evenodd" d="M303.55,237.092c3.789,1.251,4.271,5.812,7.575,7.574
		c-8.42-0.688-3.355,6.376-5.409,10.815c-4.729-0.671,1.03-13.915-5.417-9.741C300.31,241.777,305.365,242.869,303.55,237.092z"/>
	<path fill-rule="evenodd" clip-rule="evenodd" d="M314.373,237.092c4.115-0.881,1.374,5.108,2.159,7.574
		c2.809-3.999,13.861,7.292,5.416,10.815c1.41-3.136,0.879-6.219-2.167-7.575c-4.149,0.247-4.79,3.224-3.25,6.5
		C310.023,253.384,315.342,244.454,314.373,237.092z"/>
	<path fill-rule="evenodd" clip-rule="evenodd" d="M361.983,237.092c4.193,2.537,0.704,9.935,7.583,7.574
		c1.278,1.497,4.826,10.18,0,10.815c0.521-4.122-0.308-6.905-2.167-8.65c-5.019,0.512-3.09,5.585-4.332,7.575
		C358.346,251.518,361.798,239.399,361.983,237.092z"/>
	<path fill-rule="evenodd" clip-rule="evenodd" d="M389.038,237.092c2.785,3.698-0.431,13.404,2.167,17.314
		C383.658,255.463,389.021,241.76,389.038,237.092z"/>
	<path fill-rule="evenodd" clip-rule="evenodd" d="M408.519,237.092c4.783,1.709,0.926,12.065,2.177,17.314
		C404.486,251.288,410.042,245.336,408.519,237.092z"/>
	<path fill-rule="evenodd" clip-rule="evenodd" d="M457.212,237.092c1.093,0,2.165,0,3.258,0c-1.039,4.633,0.76,6.446,5.408,5.407
		c-5.355,3.436-6.464,5.548-6.501,12.982c-4.72-0.671,1.041-13.915-5.406-9.741C453.971,241.777,459.044,242.869,457.212,237.092z"
		/>
	<path fill-rule="evenodd" clip-rule="evenodd" d="M468.044,237.092c3.734-0.369,3.964,5.654,2.167,7.574
		c3.646-1.691,10.11,1.586,8.648,10.815c-4.42,0.458-0.58-7.347-4.315-7.575c-6.692-2.342-1.885,6.781-6.5,6.5
		C468.044,248.63,468.044,242.852,468.044,237.092z"/>
	<path fill-rule="evenodd" clip-rule="evenodd" d="M495.098,237.092c5.215-0.529,1.183,8.19,8.65,5.407
		c0.142,3.734-5.636,1.585-6.483,4.332c1.656,3.436,0.37,4.757,0,8.65c-4.736-0.671,1.04-13.915-5.406-9.741
		C491.858,241.777,496.913,242.869,495.098,237.092z"/>
	<path fill-rule="evenodd" clip-rule="evenodd" d="M443.156,244.666c0,5.037,0,10.092,0,15.147
		c-2.995,2.396-5.495,2.062-9.741,1.074c0.848-4.632,5.232,0.987,7.574-2.167c0.441-2.606-1.974-2.342-1.091-5.407
		c-4.174,0.669-4.457,0.898-7.574-1.073C431.408,244.208,438.013,240.526,443.156,244.666z M435.583,252.24
		c3.928-0.036,4.757-3.189,4.315-7.574C434.667,244.137,434.051,248.893,435.583,252.24z"/>
	<path fill-rule="evenodd" clip-rule="evenodd" d="M357.661,246.831c-2.149-0.017-1.374-2.958-4.334-2.165
		c-2.51,1.091-3.487,3.717-3.241,7.574c4.305,0.686,4.349-2.872,8.656-2.167c-1.417,3.276-4.853,4.525-9.74,4.333
		C342.591,249.334,354.347,238.061,357.661,246.831z"/>
	<path fill-rule="evenodd" clip-rule="evenodd" d="M415.01,243.574c3.928,0.775,1.496,7.891,2.167,11.907
		C413.055,255.146,413.231,246.427,415.01,243.574z"/>
	<path fill-rule="evenodd" clip-rule="evenodd" d="M420.434,243.574c3.859,2.096,10.307,1.902,9.724,10.832
		c-3.681-0.635-2.658-5.988-5.406-7.575c-3.401,1.832,1.214,7.593-1.075,8.65C418.445,253.262,421.79,248.663,420.434,243.574z"/>
	<path fill-rule="evenodd" clip-rule="evenodd" d="M604.393,248.981c3.152,2.254-0.054,7.221-1.074,10.832
		c-5.566-2.396,2.307-5.936-1.093-9.74C603.493,250.25,604.164,249.826,604.393,248.981z"/>
	<path fill-rule="evenodd" clip-rule="evenodd" d="M355.492,276.035c3.214,0.811,2.775,10.886,2.168,11.907
		C353.229,286.48,354.752,280.069,355.492,276.035z"/>
	<path fill-rule="evenodd" clip-rule="evenodd" d="M371.724,276.035c0.89,4.492-6.667,0.547-7.575,3.259
		c2.317,2.378,7.707,1.673,7.575,6.481c-3.285,0.616-7.336,4.034-10.815,1.092c0.669-2.57,6.658,0.16,7.574-2.166
		c-1.885-2.8-7.39-1.99-6.5-7.573C363.779,275.313,368.342,276.265,371.724,276.035z"/>
	<path fill-rule="evenodd" clip-rule="evenodd" d="M394.454,276.035c1.717,2.256,8.595-0.651,7.574,4.334
		c-1.937,0.14-2.28-1.321-4.332-1.075c1.426,3.875-0.073,3.962,1.083,7.573C393.196,287.396,396.814,278.73,394.454,276.035z"/>
	<path fill-rule="evenodd" clip-rule="evenodd" d="M416.102,276.035c3.03-0.141,3.119,2.66,3.24,5.426
		c2.994,0.458,1.023-4.033,3.241-4.333c3.259-1.093,1.92,2.413,2.168,4.333c4.438,1.179-0.142-6.641,5.406-4.333
		c-2.186,3.205-0.916,9.881-5.406,10.814c0.792-3.293-1.111-3.945-1.075-6.481c-1.551,1.32-2.061,3.716-2.165,6.481
		C416.242,287.433,418.551,279.365,416.102,276.035z"/>
	<path fill-rule="evenodd" clip-rule="evenodd" d="M432.324,277.128c5.584,0.264,9.74,1.621,9.74,9.739
		c-4.086,0.124-1.604-6.322-5.407-6.498c-2.906,1.285,0,5.653,0,7.573C430.369,286.78,434.631,281.267,432.324,277.128z"/>
	<path fill-rule="evenodd" clip-rule="evenodd" d="M705.037,53.117c-7.01-12.833-18.195-21.48-29.221-30.304
		c4.49,6.736,9.298,19.066,5.424,29.22c-9.97,11.124-20.308,15.439-35.721,12.981c-12.628-2.007-24.095-11.8-21.648-28.137
		c1.165-7.661,8.438-10.568,9.741-18.397c-10.674,10.973-26.842,16.442-33.535,31.388c8.788-1.128,23.091,4.113,22.722,14.064
		c-6.975-10.322-16.294-13.845-28.147-8.657c8.014-20.344,28.075-34.497,51.942-42.203c-4.966,7.583-18.3,12.101-20.554,23.805
		c-1.303,6.816,0.721,14.505,7.572,19.48c-3.664-8.349,5.321-21.216,15.149-17.314c-13.704,12.073,3.945,27.318,14.074,9.74
		c-1.674-5.69-6.114-4.174-7.576-6.49c-0.404-0.652,3.083-1.824,3.241-2.167c0.104-0.211-6.815-2.008-3.241-4.332
		c12.771,1.021,16.646,10.083,18.389,19.481c16.223-14.489-2.218-37.764-16.222-42.203c22.142,4.924,44.582,24.659,51.942,44.369
		c-15.465-7.917-29.237,3.435-29.221,20.565C672.645,66.715,690.822,46.6,705.037,53.117z M643.354,59.607
		c-3.312-6.095-2.802-14.126-1.074-17.314c-19.341,16.513,13.668,27.372,27.055,16.23c1.409-8.058-0.827-14.716-7.575-17.314
		C668.172,54.649,654.415,63.104,643.354,59.607z"/>
	<path fill-rule="evenodd" clip-rule="evenodd" d="M714.777,98.56c-0.194,1.656,1.726,14.682-3.242,15.157
		c-0.738-4.668,1.322-8.058,1.076-15.157C713.58,99.229,714.549,99.873,714.777,98.56z"/>
	<path fill-rule="evenodd" clip-rule="evenodd" d="M567.598,145.095c4.156,13.149,24.112,22.264,32.479,10.824
		c-2.606-4.518,0.439-7.609,2.148-10.824c-7.803-10.004-17.948-16.742-18.39-30.294c5.619,6.279,6.977,16.829,14.073,21.638
		c3.523,0.291,3.119-3.364,5.409-4.324c-9.212-7.714-17.246-24.148-9.741-33.555c-1.867,11.15,2.008,30.702,17.313,31.389
		c7.134-4.271,9.16-7.909,17.315-11.907c-20.854-11.669-2.378-37.914-5.407-53.027c5.283,1.982,4.209,6.615,3.241,11.907
		c4.439-0.607,2.87-7.222,8.665-6.491c-4.845,7.063-11.625,12.189-15.165,20.556c0.898,3.082,7.838,0.114,7.592,4.332
		c-2.554,2.651-2.027-1.62-5.426-1.083c-1.62,0.942,0.3,1.621-1.074,4.324c1.955,1.569,3.312,0.247,7.574,1.084
		c-1.04,2.21-4.156,2.343-7.574,2.166c1.497,8.084,11.767-0.678,19.48,3.25c-2.255,5.319-14.83-3.347-16.241,4.325
		c8.684,3.302,14.814-2.175,23.814,0c-5.531,4.184-16.573,3.223-21.646,2.167c5.141,9.3,13.368,3.698,19.479,4.332
		c-5.76,6.174-14.618,3.198-22.721,7.575c-8.737,9.97-24.432,22.265-20.573,37.878c0.335,1.462,2.713,0.898,4.333,1.074
		c2.606,0.714-3.962,2.872-4.333,1.084c-1.603,0.916-1.549,3.479-2.148,5.416c2.817,2.043,6.323-2.482,11.89-1.092
		c-2.465,5.883-11.168-1.11-11.89,6.499c6.974,0,20.379,1.832,22.722-7.573c4.528,3.574-5.69,8.858-8.665,11.906
		c5.143,0.793,11.272,3.329,15.146,2.167c3.029-3.646,1.409-6.922,1.093-10.832c4.297,1.707,1.391,3.875,4.332,6.498
		c-1.056,2.907-2.396,5.55-3.258,8.649c0.933,2.412,6.254-2.396,6.5,2.165c-8.545,0.318-17.421-0.968-18.407,4.335
		c5.106-0.106,13.281-0.212,22.739,0c-9.019,3.274-25.768,2.553-34.63,2.165c2.132-1.461,5.038-2.184,5.409-5.407
		c-0.248-1.551-5.389,1.005-8.666,0c-1.304,1.727,3.311,6.729,4.332,9.74c4.562-2.308,13.176-0.528,19.481-1.092
		c-2.782,4.034-15.184,1.885-18.388,2.166c-0.142,1.938,1.32,2.29,1.072,4.334c6.184,1.268,13.105-2.466,15.149,1.074
		c3.206-2.923,3.716-8.543,8.665-9.741c1.885,2.696-2.325,11.625,2.167,14.074c2.817-1.128,4.808-3.118,5.407-6.499
		c0.687-4.65-4.545-3.383-4.332-7.575c7.132,1.163,5.39,6.394,7.572,10.833c-4.298,2.554-5.724,7.979-11.907,8.648
		c9.812,0.811,18.408-0.317,25.982-2.167c-1.48-4.72-0.265-5.424-1.094-10.814c4.298-1.655,8.262-6.358,14.074-3.241
		c0.793,4.616,1.585,9.229,4.333,11.906c-0.088,2.784-4.634,1.128-3.26,5.409c-16.239-1.004-23.497,0.704-42.201,2.166
		c2.271-4.544-4.033-5.725-7.576-7.575c-0.808-3.346,2.978-2.095,2.169-5.424c-5.39,1.057-9.565,1.426-12.981,0
		c-1.991,2.43,4.42,5.636,9.74,4.333c-1.305,2.801-3.717,2.044-6.5,1.091c0.562,8.737,11.045,1.074,14.074,7.575
		c-3.417,0.529-3.823-1.955-7.574-1.092c0.317,2.924,4.545,1.938,5.407,4.332c22.387-4.033,45.374,2.52,59.515-9.741
		c-3.521-2.694-7.343,1.411-9.738-1.074c4.474-2.977,9.176-1.462,15.147-1.091c-3.224,4.351-6.517,8.63-11.89,10.832
		c-0.104,5.514,6.676,4.122,7.575,8.649c8.946-1.093,12.434-1.322,20.554-4.334c2.027,26.191,0.37,46.624,1.075,82.256
		c-6.166-14.038-8.509-32.743-8.647-47.628c3.662,4.721,1.372,14.919,5.406,21.648c1.778-14.55-0.774-35.439,1.091-51.942
		c-8.417,3.593-20.042-1.199-29.22,2.166c-0.792-2.961,2.148-2.185,2.166-4.334c-6.973,0.282,0.264,5.919-2.166,7.575
		c2.324,3.804,9.916,2.342,14.056,4.333c-7.151,4.579-7.188-0.987-17.313,0c-0.986-5.849-7.187-6.519-7.574-12.982
		c-10.779,3.505-20.221,6.024-29.221,2.168c-7.909,8.805-18.142,14.53-30.297,14.056c-2.887,1.073-1.338,6.604-5.406,6.498
		c1.337-7.539,0.053-6.692,2.166-10.814c3.206,3.101,5.76,0.527,11.906,1.075c-0.176-1.252,0.229-1.921,1.074-2.168
		c-3.152-10.374-17.19,1.321-20.556-8.646c-1.196,17.7-1.302,31.527,0,44.367c3.242-1.443,0.794-8.578,3.242-10.832
		c2.518,6.305-1.639,30.665-5.408,41.128c-0.758-7.187-5.707-18.793,3.243-21.646c-0.161-1.991-3.664-0.67-4.335-2.167
		c-0.212-19.164,0.862-36.478,0-54.109c7.504,6.183,24.571,7.785,29.22-2.167c-2.499-4.243-12.362-6.64-10.812-14.056
		c-10.233,1.516-23.972,5.25-36.796-2.166c-11.818,12.049-17.226,24.396-22.722,43.277c-1.762,0.316-1.866-1.021-3.259-1.075
		c1.902,3.559,2.148,11.062-4.313,12.981c3.08-20.291,3.996-28.129,9.739-46.535c3.927,9.652-3.929,14.637-4.333,27.056
		c6.64-12.119,14.797-28.482,20.555-37.87c5.338-1.357,12.224,5.073,20.556,4.332c3.24-0.033,1.392-5.106,3.258-6.499
		c-10.884-0.299-19.197-3.013-28.146-7.574c-2.978,7.116-7.31,12.876-8.648,21.648c-5.812-8.067,7.539-14.514,5.407-25.981
		c13.932,6.711,24.183,12.33,40.036,6.5c-3.118-4.827-4.174-11.695-5.406-18.406c-5.691-2.536-11.592-3.857-18.391-4.315
		c-1.85-0.705-0.688-2.501,1.074-2.167c-6.006-0.088-13.491-5.239-17.313-10.823c-19.111,7.741-31.441,24.051-46.535,30.306
		c2.061-6.061,7.696-8.667,8.665-13c1.604,0.563,2.713,1.603,4.315,2.167c10.48-7.908,20.591-16.215,32.48-22.722
		c7.292,7.837,15.729,11.255,24.889,15.147c2.095-1.515,1.601-5.601,3.239-7.573c-10.11-0.344-14.09-6.826-22.722-8.657
		c2.467-2.448-0.738-4.756-2.165-6.49c-14.796,7.203-24.202,19.798-37.87,28.129C539.311,163.361,556.307,152.59,567.598,145.095z
		 M601.151,178.649c2.288,3.346,9.423,1.533,10.815-2.167C607.104,175.18,604.921,175.373,601.151,178.649z M614.134,182.981
		c-4.353-2.007-8.931,0.425-11.908-1.091C601.203,187.597,613.955,188.038,614.134,182.981z M635.78,221.926
		c13.157,8.878,22.034,4.757,36.795-2.148C659.205,221.063,650.717,221.979,635.78,221.926z M662.836,201.371
		c0.933,3.751,4.578,4.809,7.572,6.499c0.175-3.434-2.871-3.628-2.166-7.573C665.74,199.944,664.085,200.474,662.836,201.371z"/>
	<path fill-rule="evenodd" clip-rule="evenodd" d="M426.917,73.671c1.85-0.229,2.799,1.85,3.24,0
		c4.651,2.934,3.382,11.775,5.426,17.315c-5.072-1.428-2.572-10.411-6.5-12.981c-3.628,3.955,1.849,13.333-7.572,12.981
		c-2.556-2.863-1.781-9.037-4.334-11.899c-2.713,1.428-1.357,8.385-1.075,11.899c-8.094,0.519-1.621-12.065-1.092-16.231
		c3.312-0.785,3.945,1.11,6.501,1.083c-2.133,3.77,0.209,10.929,2.165,14.064C425.561,85.305,426.563,79.811,426.917,73.671z"/>
	<path fill-rule="evenodd" clip-rule="evenodd" d="M751.572,93.153c-2.572,0.634,3.083-6.464-2.165-5.408
		c-2.943,0.979,3.292,2.422,0,4.324c-10.693,2.633-16.821,0.757-24.891,5.416c5.672,18.803-6.623,40.768-20.555,43.286
		c12.348-8.216,27.179-31.907,15.147-47.618c11.255,1.726,15.219-2.14,28.129-3.25c-10.496-5.266-25.328-0.616-36.794-2.157
		c1.197,2.467,5.935,6.993,3.259,9.74c-1.938-3.17-5.654-7.062-8.666-11.907c31.686-1.25,50.322,0.97,73.59-1.082
		C772.55,90.863,760.098,85.921,751.572,93.153z"/>
	<path fill-rule="evenodd" clip-rule="evenodd" d="M636.872,152.669c-0.599,6.941-14.848,6.765-20.573,3.25
		c4.491-6.526,3.471-11.017,3.241-18.397c8.859-0.872,25.962-0.502,21.646,12.99c-3.047-9.326-10.78-11.642-18.388-9.74
		C623.68,147.834,629.157,156.034,636.872,152.669z"/>
	<path fill-rule="evenodd" clip-rule="evenodd" d="M683.389,174.316c-4.314,0.353-6.005-1.92-10.813-1.074
		c-3.047,2.537-2.501,9.265,0,11.89c4.703-1.409,11.113-1.146,16.24-2.15C688.34,178.755,682.403,180.006,683.389,174.316
		c3.787,0.916,6.572,2.818,7.593,6.5c3.944,0.949,5.76-1.92,7.572,0c-7.59,6.27-19.215,9.283-30.312,9.741
		C661.971,177.522,676.908,162.762,683.389,174.316z"/>
	<path fill-rule="evenodd" clip-rule="evenodd" d="M397.696,247.906c-2.414,0.458-0.431,5.338-1.076,7.575
		c-5.134-2.89-1.426-11.943-1.083-18.39c3.857,0.916,0.132,2.659,1.083,6.482c2.519-0.354,4.66-1.11,5.408-3.241
		c2.634,0.669,0.573,5.461-2.166,4.333c1.382,3.664,3.231,6.869,5.416,9.74C402.38,256.872,400.002,249.615,397.696,247.906z"/>
	<path fill-rule="evenodd" clip-rule="evenodd" d="M351.168,80.171c0.371,4.694-2.985,5.672-6.499,6.491
		c0.758,3.874,4.932,1.364,5.417-1.084c2.773,7.935-11.229,7.627-8.659-3.249C344.484,79.845,346.431,78.647,351.168,80.171z"/>
	<path fill-rule="evenodd" clip-rule="evenodd" d="M600.077,84.496c-3.294,3.936-4.227,10.216-8.667,12.989
		c-3.064-3.663,5.515-7.97,3.241-10.823c-7.521-0.785-16.434-1.568-27.054,0c9.07,3.311,16.326,2.492,21.647,5.407
		c-4.176,7.715-3.683,13.228-4.334,21.647c-5.582-3.109-0.775-16.283,1.093-19.481c-16.804-6.561-33.221-4.571-56.276-8.658
		C552.202,81.616,576.686,83.105,600.077,84.496z"/>
	<path fill-rule="evenodd" clip-rule="evenodd" d="M448.563,89.902c-3.029,2.449-8.049,2.546-10.813,0
		c0.862-2.729,4.437-2.755,6.48-4.324c-0.563-0.871-1.128-1.76-1.074-3.249c-4.069-1.074-2.358,5.319-5.406,2.167
		C442.734,73.708,445.797,84.257,448.563,89.902z"/>
	<path fill-rule="evenodd" clip-rule="evenodd" d="M334.929,114.801c-0.951,3.011-4.342,3.584-7.575,4.324
		c1.779,4.983,3.62-0.916,7.575,0c-1.63,2.694-3.708,4.949-7.575,5.416c-2.861-3.488-2.968-5.531-2.157-10.824
		C328.358,110.784,331.891,112.369,334.929,114.801z"/>
	<path fill-rule="evenodd" clip-rule="evenodd" d="M391.204,114.801c-0.247,3.355-3.84,3.372-6.489,4.324
		c1.426,4.552,3.548,0,6.489,0c-0.247,3.725-3.214,4.72-6.489,5.416C377.211,119.617,385.656,105.861,391.204,114.801z"/>
	<path fill-rule="evenodd" clip-rule="evenodd" d="M502.674,113.717c0.651,4.984-5.603,3.048-6.501,6.49
		c2.044,3.682,3.806-1.85,6.501-1.083c-1.799,2.174-2.907,5.028-6.501,5.416c-0.792-1.013-1.954-1.639-3.24-2.167
		c0-2.888,0-5.777,0-8.657C495.485,112.888,500.417,111.585,502.674,113.717z"/>
	<path fill-rule="evenodd" clip-rule="evenodd" d="M510.246,107.226c1.076,0,2.168,0,3.243,0c1.283,4.377-1.357,11.018,1.091,16.231
		c-5.196,0.511-8.966-0.423-9.741-4.333C506.159,114.686,512.748,115.495,510.246,107.226z"/>
	<path fill-rule="evenodd" clip-rule="evenodd" d="M306.8,111.551c5.292,0.475,1.199,10.347,6.491,10.823
		c-0.696,2.748-8.313,3.17-10.823,0c0.061-4.271,7.59-1.065,5.407-7.573c-3.17-1.251-4.017,5.187-5.407,2.156
		C302.186,113.426,306.668,114.667,306.8,111.551z"/>
	<path fill-rule="evenodd" clip-rule="evenodd" d="M471.285,111.551c3.627,2.5,2.713,9.555,5.408,12.99
		c-4.51,0.176-9.02,0.369-10.815-2.167c0.862-2.739,4.456-2.766,6.5-4.333c-0.212-0.872-1.093-1.074-1.093-2.159
		c-1.339-3.091-3.153,4.704-5.407,1.075C466.777,114.246,469.665,113.541,471.285,111.551z"/>
	<path fill-rule="evenodd" clip-rule="evenodd" d="M370.64,146.179c0.238,4.562-4.844,3.814-6.491,6.49
		c2.054,3.682,3.796-1.849,6.491-1.074c-0.449,3.875-3.443,5.205-7.573,5.408c-2.22-1.745-2.51-5.425-2.158-9.741
		C363.472,145.289,367.161,144.435,370.64,146.179z"/>
	<path fill-rule="evenodd" clip-rule="evenodd" d="M455.062,147.262c-0.703,3.267-4.932,3.021-6.499,5.407
		c2.043,3.682,3.787-1.849,6.499-1.074c-1.356,2.976-3.416,5.25-7.572,5.408c-2.556-1.788-2.361-6.315-2.166-10.824
		C448.528,144.708,453.16,144.62,455.062,147.262z"/>
	<path fill-rule="evenodd" clip-rule="evenodd" d="M775.385,174.316c-15.006-5.9-23.901-17.94-38.96-23.805
		c-6.148,10.79-17.615,16.408-30.296,15.147c4.192,16.637,28.605,3.814,32.463-6.49c10.284,6.298,24.747,8.438,32.461,17.314
		c3.172,0.282,3.328-2.447,6.5-2.166c3.999,6.446,12.188,8.736,15.147,16.241c-9.987-5.531-21.701-9.337-28.147-18.408
		c-11.642-0.421-15.077-6.491-22.721-8.656c-6.8,2.721-12.082,12.268-20.556,9.749c-1.604,0.458,0.423,1.374,0,3.24
		c-6.799-0.756-9.951,1.11-16.239-2.166c-3.258,5.231-0.705,13.158-4.334,18.406c10.146,9.863,30.754,2.854,38.963-4.333
		c3.787,10.814,10.162,24.22,9.741,35.703c-4.739-8.155-5.954-20.097-9.741-30.296c-12.718,5.725-22.617,7.346-34.629,5.407
		c-3.136,1.569-2.924,6.447-5.406,8.666c13.72,6.747,26.93-1.479,36.794-7.573c0.51,2.061-3.329,4.65,1.072,4.315
		c-9.862,6.676-35.596,12.225-45.441,2.167c10.233-17.333,12.258-38.54,5.406-55.185c7.063,1.955,3.718,12.683,15.149,11.898
		c8.947-0.607,20.925-9.229,21.646-16.231C750.886,153.674,762.086,162.815,775.385,174.316z"/>
	<path fill-rule="evenodd" clip-rule="evenodd" d="M363.067,177.558c5.389,0.387,1.866,9.688,6.499,10.832
		c-3.417,1.955-10.489,3.542-10.824-2.167c2.634-0.616,5.567-0.933,5.407-4.332c-1.62-3.575-2.641,2.254-5.407,1.091
		C358.284,179.267,361.983,179.725,363.067,177.558z"/>
	<path fill-rule="evenodd" clip-rule="evenodd" d="M452.897,177.558c-0.53,5.583,1.585,8.507,3.24,11.906
		c-5.373-0.122-5.319,1.075-9.741,0c-0.65-4.263,2.432-4.79,5.408-5.407c-0.564-0.862-1.128-1.762-1.074-3.24
		c-3.33-0.811-2.078,2.959-5.406,2.165C446.662,179.988,448.724,177.733,452.897,177.558z"/>
	<path fill-rule="evenodd" clip-rule="evenodd" d="M310.041,212.186c0.263,4.228-4.015,3.929-6.491,5.426
		c1.392,5.971,5.541-2.731,6.491,0c0.29,3.523-4.2,2.29-4.324,5.407c-4.403-1.022-6.367-4.457-5.417-10.833
		C303.682,210.231,307.056,209.597,310.041,212.186z"/>
	<path fill-rule="evenodd" clip-rule="evenodd" d="M363.067,212.186c-1.63,2.694-3.708,4.951-7.575,5.426
		c0.758,3.874,4.932,1.356,5.417-1.092c3.118,3.293-3.699,7.538-6.5,5.406c-2.191-3.715-1.425-4.789-1.082-9.74
		C356.312,209.597,359.693,210.231,363.067,212.186z"/>
	<path fill-rule="evenodd" clip-rule="evenodd" d="M426.917,212.186c-0.247,3.735-3.224,4.722-6.483,5.426
		c0.74,3.874,4.916,1.356,5.408-1.092c2.767,7.943-11.236,7.627-8.665-3.241C420.029,210.652,423.552,209.069,426.917,212.186z"/>
	<path fill-rule="evenodd" clip-rule="evenodd" d="M407.436,204.612c3.539,2.977,1.707,11.29,7.574,11.907
		c0.774,5.829-4.404,5.689-9.731,5.406C408.088,218.263,404.626,208.293,407.436,204.612z"/>
	<path fill-rule="evenodd" clip-rule="evenodd" d="M292.727,210.036c4.975,0.795,1.664,9.883,6.491,10.815
		c-2.448,1.868-9.037,3.523-10.815,0c0.054-4.263,7.592-1.057,5.407-7.573c-2.712-0.194-3.389,1.655-4.332,3.241
		C285.461,213.473,292.391,212.31,292.727,210.036z"/>
	<path fill-rule="evenodd" clip-rule="evenodd" d="M436.657,210.036c0.546,4.492-0.37,10.464,4.332,10.815
		c-2.448,1.868-9.036,3.523-10.832,0c-0.142-3.047,2.66-3.117,5.426-3.24c0-1.444,0-2.89,0-4.333c-3.806-0.635-3.56,5.107-6.5,2.167
		C430.721,212.749,432.801,210.494,436.657,210.036z"/>
	<path fill-rule="evenodd" clip-rule="evenodd" d="M749.407,224.093c6.885,13.352,7.501,28.641,9.739,44.369
		c-5.391-6.288-7.556-17.931-9.739-27.054c-0.724-2.994-4.264-5.655-1.076-8.649c2.043,0.124,0.739,3.575,3.241,3.24
		C752.312,230.787,746.888,227.686,749.407,224.093z"/>
	<path fill-rule="evenodd" clip-rule="evenodd" d="M337.095,244.666c0.653,4.984-5.601,3.048-6.49,6.481
		c2.043,3.681,3.796-1.85,6.49-1.074c-1.637,2.694-3.706,4.95-7.572,5.408c-2.539-1.798-2.344-6.306-2.168-10.815
		C330.419,243.326,334.04,243.326,337.095,244.666z"/>
	<path fill-rule="evenodd" clip-rule="evenodd" d="M379.306,242.499c3.63,2.501,2.714,9.547,5.409,12.982
		c-4.51,0.175-9.037,0.37-10.825-2.168c0.987-2.254,3.197-3.293,6.491-3.24c0.141-1.938-1.321-2.29-1.075-4.333
		c-2.519,0.475-2.897,4.773-5.416,2.166C374.375,244.789,378.549,245.353,379.306,242.499z"/>
	<path fill-rule="evenodd" clip-rule="evenodd" d="M485.359,242.499c4.632,1.867,3.17,9.811,6.499,12.982
		c-4.193,0.211-7.979,0.033-10.833-1.075c-0.492-5.196,7.362-2.025,5.407-8.666c-4.032-1.146-1.709,4.068-5.407,3.241
		C480.833,245.194,484.69,245.424,485.359,242.499z"/>
	<path fill-rule="evenodd" clip-rule="evenodd" d="M387.963,270.629c7.592,0.633,0.633,10.69,4.324,16.238
		c-4.2,1.938-9.634-0.105-9.741-5.406c2.061-0.476,1.957-3.101,5.417-2.167C387.963,276.405,387.963,273.518,387.963,270.629z"/>
	<path fill-rule="evenodd" clip-rule="evenodd" d="M408.519,276.035c4.923,1.234,3.285,9.001,6.491,11.907
		c-3.664-0.281-8.771,0.845-10.815-1.075c-1.057-5.019,6.464-1.479,5.406-6.498c-1.617-3.576-2.641,2.254-5.406,1.092
		C403.736,277.744,407.436,278.202,408.519,276.035z"/>
</g>
</svg>
